# xmcd CD database file
#
# Track frame offsets:
#	150
#	12561
#	35416
#	56269
#	74982
#	95109
#	110586
#	119675
#	137020
#	172375
#
# Disc length: 2479 seconds
#
# Revision: 0
# Processed by: cddbd v1.5.2PL0 Copyright (c) Steve Scherf et al.
# Submitted via: CDex 1.51
#
DISCID=9f09ad0a
DTITLE=Liz Tobias - A Beautiful Friendship
DYEAR=2008
DGENRE=Jazz
TTITLE0=A Beautiful Friendship
TTITLE1=Black Coffee
TTITLE2=Cry Me a River
TTITLE3=Love You Madly
TTITLE4=Mercy, Mercy, Mercy
TTITLE5=Dancing in the Dark
TTITLE6=Doxy
TTITLE7=Secret Love
TTITLE8=Sea Journey - It Is Well with My Soul
TTITLE9=Like Someone in Love
EXTD=YEAR: 2008
EXTT0=
EXTT1=
EXTT2=
EXTT3=
EXTT4=
EXTT5=
EXTT6=
EXTT7=
EXTT8=
EXTT9=
PLAYORDER=
